<svg xmlns="http://www.w3.org/2000/svg" width="256" height="256" viewBox="0 0 100 100"><rect width="100" height="100" rx="20" fill="#7d6ee7"></rect><path d="M40.48 66L40.48 31.60L30.08 31.60Q30.08 28.08 31.84 26.64Q33.60 25.20 35.68 25.20L35.68 25.20L40.88 25.20Q41.52 19.84 43.04 16.28Q44.56 12.72 47.16 10.60Q49.76 8.48 53.40 7.64Q57.04 6.80 61.84 6.80L61.84 6.80Q64.40 6.80 65.36 8.08Q66.32 9.36 66.32 12.32L66.32 12.32L66.32 13.20L61.84 13.20Q58.80 13.20 56.44 13.56Q54.08 13.92 52.40 15.16Q50.72 16.40 49.64 18.80Q48.56 21.20 48.08 25.20L48.08 25.20L78.16 25.20Q78.16 28.72 76.40 30.16Q74.64 31.60 72.56 31.60L72.56 31.60L47.68 31.60L47.68 66Q47.68 74.16 46.48 79.40Q45.28 84.64 42.68 87.72Q40.08 90.80 36.04 92Q32 93.20 26.32 93.20L26.32 93.20Q23.76 93.20 22.80 91.92Q21.84 90.64 21.84 87.68L21.84 87.68L21.84 86.80L26.32 86.80Q30.08 86.80 32.76 86.20Q35.44 85.60 37.16 83.48Q38.88 81.36 39.68 77.24Q40.48 73.12 40.48 66L40.48 66Z" fill="#ffffff"></path></svg>